<?xml version="1.0" standalone="yes"?>

<svg version="1.1" viewBox="0.0 0.0 738.8556430446195 185.5538057742782" fill="none" stroke="none" stroke-linecap="square" stroke-miterlimit="10" xmlns="http://www.w3.org/2000/svg" xmlns:xlink="http://www.w3.org/1999/xlink"><clipPath id="p.0"><path d="m0 0l738.85565 0l0 185.5538l-738.85565 0l0 -185.5538z" clip-rule="nonzero"></path></clipPath><g clip-path="url(#p.0)"><path fill="#000000" fill-opacity="0.0" d="m0 0l738.85565 0l0 185.5538l-738.85565 0z" fill-rule="evenodd"></path><path fill="#ffffff" d="m19.503937 38.772163l0 0c0 -14.124855 11.450459 -25.575314 25.575314 -25.575314l138.04622 0c6.7829895 0 13.2881775 2.6945343 18.084473 7.490836c4.7963104 4.796301 7.4908447 11.301483 7.4908447 18.084476l0 102.298195c0 14.124847 -11.450455 25.575317 -25.575317 25.575317l-138.04622 0l0 0c-14.124855 0 -25.575314 -11.45047 -25.575314 -25.575317z" fill-rule="evenodd"></path><path stroke="#000000" stroke-width="1.0" stroke-linejoin="round" stroke-linecap="butt" d="m19.503937 38.772163l0 0c0 -14.124855 11.450459 -25.575314 25.575314 -25.575314l138.04622 0c6.7829895 0 13.2881775 2.6945343 18.084473 7.490836c4.7963104 4.796301 7.4908447 11.301483 7.4908447 18.084476l0 102.298195c0 14.124847 -11.450455 25.575317 -25.575317 25.575317l-138.04622 0l0 0c-14.124855 0 -25.575314 -11.45047 -25.575314 -25.575317z" fill-rule="evenodd"></path><path fill="#000000" d="m83.41291 43.45135q-1.625 2.96875 -6.15625 4.96875l-1.40625 -1.484375q4.375 -1.625 5.859375 -4.234375q1.40625 -2.4375 1.40625 -6.59375l-9.421875 0l0 4.890625l-1.703125 0l0 -6.53125l13.0625 0q0 6.015625 -1.640625 8.984375zm5.1210938 -1.9375l0 -1.625l16.546875 0l0 1.625l-16.546875 0zm34.664062 0.296875l-6.90625 0.75l1.40625 6.015625l-1.625 0.375l-1.40625 -6.171875l-7.578125 0.890625l-0.21875 -1.5625l7.421875 -0.8125l-0.75 -3.484375l-5.046875 0.59375l-0.296875 -1.5625l4.90625 -0.515625l-0.75 -3.421875l1.5625 -0.296875q0.671875 -0.0625 0.21875 0.53125l0.59375 2.96875l5.421875 -0.75l0.296875 1.5625l-5.265625 0.671875l0.734375 3.484375l6.984375 -0.8125l0.296875 1.546875zm16.398445 -2.8125q-3.9375 8.15625 -13.203133 8.609375q-0.375 0.96875 -0.75 0.15625l-0.59375 -1.9375q9.656258 -0.21875 12.984383 -7.9375l1.5625 1.109375zm-10.46875 0q-2.0000076 -1.859375 -3.7812576 -3.046875l1.265625 -1.5625q1.5625076 0.96875 3.9375076 3.203125l-1.421875 1.40625zm25.246094 -1.5625q-1.421875 8.09375 -9.28125 11.578125l-1.34375 -1.40625q7.28125 -2.96875 8.765625 -10.25l-5.9375 0q-1.703125 2.828125 -3.5625 4.53125l-1.484375 -0.96875q3.859375 -3.484375 4.96875 -8.15625l1.703125 0.59375q0.453125 0.21875 -0.140625 0.4375q-0.296875 0.96875 -0.8125 1.9375l5.34375 0l0.65625 -0.375l1.34375 1.34375q0.51560974 0.515625 -0.21875 0.734375zm0.4375 -1.78125q-1.1875 -1.703125 -2.296875 -2.59375l0.96875 -0.8125q1.25 1.109375 2.3749847 2.59375l-1.0468597 0.8125zm2.1562347 -0.890625q-1.1875 -1.484375 -2.1562347 -2.375l0.89060974 -0.8906231q1.109375 1.0468731 2.15625 2.374998l-0.890625 0.890625z" fill-rule="nonzero"></path><path fill="#000000" d="m78.32502 62.185726l-7.421875 0l0 -1.640625l15.21875 0l0 1.640625l-6.078125 0l0 0.96875q0 4.671879 -3.34375 7.718754l-1.484375 -1.109375q3.109375 -2.453125 3.109375 -6.609379l0 -0.96875zm-4.75 -4.53125l0 -1.625l9.140625 0l0 1.625l-9.140625 0zm10.09375 -3.046875q0.96875 0.96875 2.078125 2.609375l-1.03125 0.734375q-1.046875 -1.484375 -2.078125 -2.671875l1.03125 -0.671875zm1.78125 -0.953125q0.96875 1.03125 2.078125 2.515625l-1.03125 0.75q-1.1875 -1.640625 -2.078125 -2.53125l1.03125 -0.734375zm10.3203125 17.437504l-1.484375 0l0 -6.90625q-1.625 1.265625 -4.890625 2.890625l-1.046875 -1.25q7.046875 -3.4218788 9.65625 -7.500004l1.25 0.96875q0.453125 0.359375 -0.296875 0.515625q-1.25 1.5625 -3.1875 3.1875l0 8.093754zm8.613281 -3.1875q6.828125 -1.265625 9.9375 -6.906254l1.265625 1.265625q-3.5625 6.234379 -11.875 7.640629l-1.1875 -0.890625l0.15625 -0.453125l0 -12.312504l1.625 0q0.671875 0.078125 0.078125 0.515625l0 11.140629zm26.054695 -8.468754q-1.421875 8.093754 -9.281258 11.578129l-1.34375 -1.40625q7.28125 -2.96875 8.765633 -10.250004l-5.9375076 0q-1.703125 2.828125 -3.5625 4.53125l-1.484375 -0.96875q3.859375 -3.484375 4.96875 -8.15625l1.703125 0.59375q0.453125 0.21875 -0.140625 0.4375q-0.296875 0.96875 -0.8125 1.9375l5.3437576 0l0.65625 -0.375l1.34375 1.34375q0.515625 0.515625 -0.21875 0.734375zm5.5546875 1.265625q3.640625 1.03125 7.359375 2.8125l-0.890625 1.7187538q-3.9375 -2.0156288 -6.46875 -2.6718788l0 7.718754l-1.703125 0l0 -14.843754l1.484375 0q0.890625 0.0625 0.21875 0.59375l0 4.671875zm19.742172 2.375q0 5.562504 -5.1874847 8.015629l-1.484375 -1.265625q4.890625 -2.21875 4.96875 -6.828129l0 -7.421875l1.5624847 0q0.734375 0.15625 0.140625 0.59375l0 6.90625zm-7.6406097 1.6250038l-1.703125 0l0 -8.375004l1.625 0q0.75 0.0625 0.078125 0.59375l0 7.781254z" fill-rule="nonzero"></path><path fill="#ffffff" d="m275.50394 38.772163l0 0c0 -14.124855 11.45047 -25.575314 25.575317 -25.575314l138.0462 0c6.78302 0 13.2881775 2.6945343 18.084503 7.490836c4.796295 4.796301 7.490814 11.301483 7.490814 18.084476l0 102.298195c0 14.124847 -11.450439 25.575317 -25.575317 25.575317l-138.0462 0l0 0c-14.124847 0 -25.575317 -11.45047 -25.575317 -25.575317z" fill-rule="evenodd"></path><path stroke="#000000" stroke-width="1.0" stroke-linejoin="round" stroke-linecap="butt" d="m275.50394 38.772163l0 0c0 -14.124855 11.45047 -25.575314 25.575317 -25.575314l138.0462 0c6.78302 0 13.2881775 2.6945343 18.084503 7.490836c4.796295 4.796301 7.490814 11.301483 7.490814 18.084476l0 102.298195c0 14.124847 -11.450439 25.575317 -25.575317 25.575317l-138.0462 0l0 0c-14.124847 0 -25.575317 -11.45047 -25.575317 -25.575317z" fill-rule="evenodd"></path><path fill="#000000" d="m328.2508 40.8576q3.1875 2.4375 6.296875 5.640625l-1.484375 1.265625q-3.109375 -3.28125 -6.0 -5.5q-2.90625 3.109375 -6.609375 5.5625l-1.40625 -1.265625q7.859375 -5.109375 10.09375 -10.234375l-8.09375 0.515625l-0.21875 -1.78125l8.609375 -0.375l0.890625 -0.21875l1.1875 1.1875q0.515625 0.515625 -0.296875 0.671875q-1.421875 2.453125 -2.96875 4.53125zm15.128906 -0.671875l-7.421875 0l0 -1.640625l15.21875 0l0 1.640625l-6.078125 0l0 0.96875q0 4.671875 -3.34375 7.71875l-1.484375 -1.109375q3.109375 -2.453125 3.109375 -6.609375l0 -0.96875zm-4.75 -4.53125l0 -1.625l9.875 0l0 1.625l-9.875 0zm14.550781 5.859375l0 -1.625l16.546875 0l0 1.625l-16.546875 0zm33.398438 -2.140625q-3.78125 6.078125 -11.71875 8.609375q-0.234375 0.890625 -0.75 0.078125l-1.03125 -1.640625q8.078125 -1.78125 12.171875 -8.390625l1.328125 1.34375zm-11.421875 2.0q-2.234375 -1.640625 -3.71875 -2.375l1.109375 -1.5625q1.859375 0.96875 3.796875 2.375l-1.1875 1.5625zm2.21875 -4.375q-2.0 -1.421875 -3.703125 -2.375l0.953125 -1.5625q2.015625 1.109375 3.796875 2.375l-1.046875 1.5625zm6.15625 -5.046873q1.265625 0.9531231 2.53125 2.296873l-0.96875 0.96875q-1.328125 -1.484375 -2.515625 -2.375l0.953125 -0.8906231zm-1.78125 1.2499981q1.265625 1.046875 2.53125 2.375l-0.96875 0.890625q-1.265625 -1.328125 -2.59375 -2.4375l1.03125 -0.828125zm21.304688 5.796875q-3.9375 8.15625 -13.203125 8.609375q-0.375 0.96875 -0.75 0.15625l-0.59375 -1.9375q9.65625 -0.21875 12.984375 -7.9375l1.5625 1.109375zm-10.46875 0q-2.0 -1.859375 -3.78125 -3.046875l1.265625 -1.5625q1.5625 0.96875 3.9375 3.203125l-1.421875 1.40625zm25.246094 -1.5625q-1.421875 8.09375 -9.28125 11.578125l-1.34375 -1.40625q7.28125 -2.96875 8.765625 -10.25l-5.9375 0q-1.703125 2.828125 -3.5625 4.53125l-1.484375 -0.96875q3.859375 -3.484375 4.96875 -8.15625l1.703125 0.59375q0.453125 0.21875 -0.140625 0.4375q-0.296875 0.96875 -0.8125 1.9375l5.34375 0l0.65625 -0.375l1.34375 1.34375q0.515625 0.515625 -0.21875 0.734375zm0.4375 -1.78125q-1.1875 -1.703125 -2.296875 -2.59375l0.96875 -0.8125q1.25 1.109375 2.375 2.59375l-1.046875 0.8125zm2.15625 -0.890625q-1.1875 -1.484375 -2.15625 -2.375l0.890625 -0.8906231q1.109375 1.0468731 2.15625 2.374998l-0.890625 0.890625z" fill-rule="nonzero"></path><path fill="#000000" d="m361.79376 66.482605l0 1.640625l-14.765625 0l0 -1.640625l6.453125 0l0 -7.343754l-5.203125 0l0 -1.625l12.03125 0l0 1.625l-5.125 0l0 7.343754l6.609375 0zm12.683594 -3.4062538q0 5.562504 -5.1875 8.015629l-1.484375 -1.265625q4.890625 -2.21875 4.96875 -6.828129l0 -7.421875l1.5625 0q0.734375 0.15625 0.140625 0.59375l0 6.90625zm-7.640625 1.6250038l-1.703125 0l0 -8.375004l1.625 0q0.75 0.0625 0.078125 0.59375l0 7.781254zm19.378906 -2.6718788q0.140625 5.640629 -4.828125 8.765629l-1.265625 -1.40625q4.375 -2.375 4.375 -6.687504l0 -3.1875l1.5625 0q0.671875 0.078125 0.15625 0.515625l0 1.9375q2.671875 -2.015625 4.078125 -3.9375l-12.09375 0.4375l-0.15625 -1.703125l13.515625 -0.375l0.515625 -0.140625l1.109375 1.328125q0.21875 0.296875 -0.375 0.234375q-2.21875 2.890625 -5.34375 5.40625l-1.25 -1.1875z" fill-rule="nonzero"></path><path fill="#ffffff" d="m531.50397 38.772163l0 0c0 -14.124855 11.450439 -25.575314 25.575256 -25.575314l138.04626 0c6.782959 0 13.288147 2.6945343 18.084473 7.490836c4.7962646 4.796301 7.4908447 11.301483 7.4908447 18.084476l0 102.298195c0 14.124847 -11.4505005 25.575317 -25.575317 25.575317l-138.04626 0l0 0c-14.124817 0 -25.575256 -11.45047 -25.575256 -25.575317z" fill-rule="evenodd"></path><path stroke="#000000" stroke-width="1.0" stroke-linejoin="round" stroke-linecap="butt" d="m531.50397 38.772163l0 0c0 -14.124855 11.450439 -25.575314 25.575256 -25.575314l138.04626 0c6.782959 0 13.288147 2.6945343 18.084473 7.490836c4.7962646 4.796301 7.4908447 11.301483 7.4908447 18.084476l0 102.298195c0 14.124847 -11.4505005 25.575317 -25.575317 25.575317l-138.04626 0l0 0c-14.124817 0 -25.575256 -11.45047 -25.575256 -25.575317z" fill-rule="evenodd"></path><path fill="#000000" d="m599.6766 41.07635q0 5.5625 -5.1875 8.015625l-1.484375 -1.265625q4.890625 -2.21875 4.96875 -6.828125l0 -7.421875l1.5625 0q0.734375 0.15625 0.140625 0.59375l0 6.90625zm-7.640625 1.625l-1.703125 0l0 -8.375l1.625 0q0.75 0.0625 0.078125 0.59375l0 7.78125zm25.753906 -7.5625q0.59375 0 0.96875 -0.375q0.375 -0.375 0.375 -0.96875q0 -0.59375 -0.375 -0.953125q-0.375 -0.375 -0.96875 -0.375q-0.59375 0 -0.96875 0.375q-0.359375 0.359375 -0.359375 0.953125q0 0.59375 0.359375 0.96875q0.375 0.375 0.96875 0.375zm0 0.734375q-0.890625 0 -1.484375 -0.59375q-0.59375 -0.59375 -0.59375 -1.484375q0 -0.890625 0.59375 -1.484375q0.59375 -0.5937481 1.484375 -0.5937481q0.890625 0 1.484375 0.5937481q0.59375 0.59375 0.59375 1.484375q0 0.890625 -0.59375 1.484375q-0.59375 0.59375 -1.484375 0.59375zm-2.515625 4.15625q2.671875 2.828125 4.0 5.203125l-1.625 1.109375q-1.5625 -2.75 -3.796875 -5.125l1.421875 -1.1875zm-3.5625 -3.1875l6.828125 0l0 1.640625l-6.828125 0l0 10.3125l-1.71875 0l0 -10.3125l-6.671875 0l0 -1.640625l6.671875 0l0 -4.15625l1.5625 0q0.8125 0.15625 0.15625 0.59375l0 3.5625zm-3.9375 4.078125q0.4375 0.375 -0.296875 0.53125q-1.109375 2.4375 -2.828125 5.109375l-1.625 -0.890625q1.859375 -2.671875 3.109375 -5.640625l1.640625 0.890625zm28.71875 -1.546875q-3.78125 6.078125 -11.71875 8.609375q-0.234375 0.890625 -0.75 0.078125l-1.03125 -1.640625q8.078125 -1.78125 12.171875 -8.390625l1.328125 1.34375zm-11.421875 2.0q-2.234375 -1.640625 -3.71875 -2.375l1.109375 -1.5625q1.859375 0.96875 3.796875 2.375l-1.1875 1.5625zm2.21875 -4.375q-2.0 -1.421875 -3.703125 -2.375l0.953125 -1.5625q2.015625 1.109375 3.796875 2.375l-1.046875 1.5625zm6.15625 -5.046873q1.265625 0.9531231 2.53125 2.296873l-0.96875 0.96875q-1.328125 -1.484375 -2.515625 -2.375l0.953125 -0.8906231zm-1.78125 1.2499981q1.265625 1.046875 2.53125 2.375l-0.96875 0.890625q-1.265625 -1.328125 -2.59375 -2.4375l1.03125 -0.828125zm9.9453125 5.5q3.640625 1.03125 7.359375 2.8125l-0.890625 1.71875q-3.9375 -2.015625 -6.46875 -2.671875l0 7.71875l-1.703125 0l0 -14.84375l1.484375 0q0.890625 0.0625 0.21875 0.59375l0 4.671875zm19.742188 2.375q0 5.5625 -5.1875 8.015625l-1.484375 -1.265625q4.890625 -2.21875 4.96875 -6.828125l0 -7.421875l1.5625 0q0.734375 0.15625 0.140625 0.59375l0 6.90625zm-7.640625 1.625l-1.703125 0l0 -8.375l1.625 0q0.75 0.0625 0.078125 0.59375l0 7.78125z" fill-rule="nonzero"></path><path fill="#000000" fill-opacity="0.0" d="m209.75066 56.29134l64.12599 1.0393677" fill-rule="evenodd"></path><path stroke="#000000" stroke-width="3.0" stroke-linejoin="round" stroke-linecap="butt" d="m209.75066 56.29134l46.12834 0.7476616" fill-rule="evenodd"></path><path fill="#000000" stroke="#000000" stroke-width="3.0" stroke-linecap="butt" d="m255.7987 61.993546l13.69281 -4.7339134l-13.532211 -5.1751785z" fill-rule="evenodd"></path><path fill="#000000" fill-opacity="0.0" d="m465.75067 56.29134l64.12598 1.0393677" fill-rule="evenodd"></path><path stroke="#000000" stroke-width="3.0" stroke-linejoin="round" stroke-linecap="butt" d="m465.75067 56.29134l46.128357 0.7476616" fill-rule="evenodd"></path><path fill="#000000" stroke="#000000" stroke-width="3.0" stroke-linecap="butt" d="m511.7987 61.993546l13.69281 -4.7339134l-13.532196 -5.1751785z" fill-rule="evenodd"></path><path fill="#000000" fill-opacity="0.0" d="m529.87665 112.291336l-64.12598 1.0393753" fill-rule="evenodd"></path><path stroke="#000000" stroke-width="3.0" stroke-linejoin="round" stroke-linecap="butt" d="m529.87665 112.291336l-46.128357 0.7476654" fill-rule="evenodd"></path><path fill="#000000" stroke="#000000" stroke-width="3.0" stroke-linecap="butt" d="m483.668 108.08445l-13.532227 5.175186l13.69281 4.7339096z" fill-rule="evenodd"></path><path fill="#000000" fill-opacity="0.0" d="m273.87665 112.291336l-64.12599 1.0393753" fill-rule="evenodd"></path><path stroke="#000000" stroke-width="3.0" stroke-linejoin="round" stroke-linecap="butt" d="m273.87665 112.291336l-46.128357 0.7476654" fill-rule="evenodd"></path><path fill="#000000" stroke="#000000" stroke-width="3.0" stroke-linecap="butt" d="m227.66798 108.08445l-13.532196 5.175186l13.69281 4.7339096z" fill-rule="evenodd"></path></g></svg>

